<?xml version="1.0" encoding="utf-8"?>
<!-- Generator: Adobe Illustrator 26.4.1, SVG Export Plug-In . SVG Version: 6.00 Build 0)  -->
<svg version="1.1" id="图层_1" xmlns="http://www.w3.org/2000/svg" xmlns:xlink="http://www.w3.org/1999/xlink" x="0px" y="0px"
	 viewBox="0 0 619 128" style="enable-background:new 0 0 619 128;" xml:space="preserve">
 <g>
      <g>
        <path d="M54.1,36.61H41.71c-0.99,0-1.8-0.81-1.8-1.8V21.45c0-0.99,0.81-1.8,1.8-1.8H54.1c0.99,0,1.8,0.81,1.8,1.8v13.35
          C55.9,35.8,55.09,36.61,54.1,36.61z" fill="#ffffff"/>
        <path d="M85.4,36.61H73.01c-0.99,0-1.8-0.81-1.8-1.8V21.45c0-0.99,0.81-1.8,1.8-1.8H85.4c0.99,0,1.8,0.81,1.8,1.8v13.35
          C87.2,35.8,86.4,36.61,85.4,36.61z" fill="#ffffff"/>
        <path d="M69.75,20.96H57.36c-0.99,0-1.8-0.81-1.8-1.8V5.8c0-0.99,0.81-1.8,1.8-1.8h12.39c0.99,0,1.8,0.81,1.8,1.8v13.35
          C71.55,20.15,70.75,20.96,69.75,20.96z" fill="#ffffff"/>
        <path d="M38.45,52.26H26.06c-0.99,0-1.8-0.81-1.8-1.8V37.1c0-0.99,0.81-1.8,1.8-1.8h12.39c0.99,0,1.8,0.81,1.8,1.8v13.35
          C40.25,51.45,39.44,52.26,38.45,52.26z" fill="#ffffff"/>
        <path d="M69.75,66.61H57.36c-0.99,0-1.8-0.81-1.8-1.8V51.45c0-0.99,0.81-1.8,1.8-1.8h12.39c0.99,0,1.8,0.81,1.8,1.8V64.8
          C71.55,65.8,70.75,66.61,69.75,66.61z" fill="#ffffff"/>
        <path d="M101.05,52.26H88.66c-0.99,0-1.8-0.81-1.8-1.8V37.1c0-0.99,0.81-1.8,1.8-1.8h12.39c0.99,0,1.8,0.81,1.8,1.8v13.35
          C102.85,51.45,102.05,52.26,101.05,52.26z" fill="#ffffff"/>
        <path d="M22.8,67.91H10.41c-0.99,0-1.8-0.81-1.8-1.8V52.75c0-0.99,0.81-1.8,1.8-1.8H22.8c0.99,0,1.8,0.81,1.8,1.8v13.35
          C24.6,67.1,23.79,67.91,22.8,67.91z"  fill="#ffffff" />
        <path d="M54.1,83.56H41.71c-0.99,0-1.8-0.81-1.8-1.8V68.41c0-0.99,0.81-1.8,1.8-1.8H54.1c0.99,0,1.8,0.81,1.8,1.8v13.35
          C55.9,82.75,55.09,83.56,54.1,83.56z"  fill="#ffffff" />
        <path d="M69.75,83.56H57.36c-0.99,0-1.8-0.81-1.8-1.8V68.41c0-0.99,0.81-1.8,1.8-1.8h12.39c0.99,0,1.8,0.81,1.8,1.8v13.35
          C71.55,82.75,70.75,83.56,69.75,83.56z"  fill="#ffffff" />
        <path d="M85.4,83.56H73.01c-0.99,0-1.8-0.81-1.8-1.8V68.41c0-0.99,0.81-1.8,1.8-1.8H85.4c0.99,0,1.8,0.81,1.8,1.8v13.35
          C87.2,82.75,86.4,83.56,85.4,83.56z"  fill="#ffffff" />
        <path d="M116.7,67.91h-12.39c-0.99,0-1.8-0.81-1.8-1.8V52.75c0-0.99,0.81-1.8,1.8-1.8h12.39c0.99,0,1.8,0.81,1.8,1.8v13.35
          C118.51,67.1,117.7,67.91,116.7,67.91z"  fill="#ffffff" />
        <path d="M22.8,84.86H10.41c-0.99,0-1.8-0.81-1.8-1.8V69.71c0-0.99,0.81-1.8,1.8-1.8H22.8c0.99,0,1.8,0.81,1.8,1.8v13.35
          C24.6,84.06,23.79,84.86,22.8,84.86z"  fill="#ffffff" />
        <path d="M116.7,84.86h-12.39c-0.99,0-1.8-0.81-1.8-1.8V69.71c0-0.99,0.81-1.8,1.8-1.8h12.39c0.99,0,1.8,0.81,1.8,1.8v13.35
          C118.51,84.06,117.7,84.86,116.7,84.86z"  fill="#ffffff" />
        <path d="M22.8,101.82H10.41c-0.99,0-1.8-0.81-1.8-1.8V86.67c0-0.99,0.81-1.8,1.8-1.8H22.8c0.99,0,1.8,0.81,1.8,1.8v13.35
          C24.6,101.01,23.79,101.82,22.8,101.82z"  fill="#ffffff" />
        <path d="M116.7,101.82h-12.39c-0.99,0-1.8-0.81-1.8-1.8V86.67c0-0.99,0.81-1.8,1.8-1.8h12.39c0.99,0,1.8,0.81,1.8,1.8v13.35
          C118.51,101.01,117.7,101.82,116.7,101.82z"  fill="#ffffff" />
        <path d="M22.8,118.78H10.41c-0.99,0-1.8-0.81-1.8-1.8v-13.35c0-0.99,0.81-1.8,1.8-1.8H22.8c0.99,0,1.8,0.81,1.8,1.8v13.35
          C24.6,117.97,23.79,118.78,22.8,118.78z"  fill="#ffffff" />
        <path d="M54.1,120.08H41.71c-0.99,0-1.8-0.81-1.8-1.8v-13.35c0-0.99,0.81-1.8,1.8-1.8H54.1c0.99,0,1.8,0.81,1.8,1.8v13.35
          C55.9,119.27,55.09,120.08,54.1,120.08z"  fill="#ffffff" />
        <path d="M69.75,120.08H57.36c-0.99,0-1.8-0.81-1.8-1.8v-13.35c0-0.99,0.81-1.8,1.8-1.8h12.39c0.99,0,1.8,0.81,1.8,1.8v13.35
          C71.55,119.27,70.75,120.08,69.75,120.08z"  fill="#ffffff" />
        <path d="M85.4,120.08H73.01c-0.99,0-1.8-0.81-1.8-1.8v-13.35c0-0.99,0.81-1.8,1.8-1.8H85.4c0.99,0,1.8,0.81,1.8,1.8v13.35
          C87.2,119.27,86.4,120.08,85.4,120.08z"  fill="#ffffff" />
        <path d="M116.7,118.78h-12.39c-0.99,0-1.8-0.81-1.8-1.8v-13.35c0-0.99,0.81-1.8,1.8-1.8h12.39c0.99,0,1.8,0.81,1.8,1.8v13.35
          C118.51,117.97,117.7,118.78,116.7,118.78z"  fill="#ffffff" />
        <line x1="63.9" y1="11.83" x2="110.85" y2="60.08"  fill="#ffffff" />
        <line x1="16.95" y1="60.08" x2="63.9" y2="11.83"  fill="#ffffff" />
      </g>
      <g>
        <g>
          <path d="M141.45,25.01h17.25v69.01h17.25V25.01h17.25v86.26h-51.76V25.01z"  fill="#ffffff" />
          <path d="M244.96,25.01v17.25h-17.25v17.25h17.25v17.25h-17.25v34.5h-17.25V25.01H244.96z M262.21,59.51h-17.25V42.26h17.25V59.51
            z M244.96,76.77h17.25v34.5h-17.25V76.77z"  fill="#ffffff" />
          <path d="M279.47,42.26h17.25v17.25h17.25V42.26h17.25v69.01h-17.25v-34.5h-17.25v34.5h-17.25V42.26z M313.97,42.26h-17.25V25.01
            h17.25V42.26z"  fill="#ffffff" />
          <path d="M348.47,42.26h17.25v17.25h34.5v34.5h-17.25V76.77h-34.5V42.26z M348.47,111.27V94.02h34.5v17.25H348.47z M365.73,42.26
            V25.01h34.5v17.25H365.73z"  fill="#ffffff" />
          <path d="M417.48,42.26h17.25v51.76h-17.25V42.26z M434.73,42.26V25.01h34.5v17.25H434.73z M434.73,111.27V94.02h34.5v17.25
            H434.73z"  fill="#ffffff" />
          <path d="M486.49,42.26h17.25v17.25h17.25V42.26h17.25v69.01h-17.25v-34.5h-17.25v34.5h-17.25V42.26z M520.99,42.26h-17.25V25.01
            h17.25V42.26z"  fill="#ffffff" />
          <path d="M590,25.01v17.25h-17.25v69.01H555.5V25.01H590z M590,42.26h17.25v69.01H590V42.26z"  fill="#ffffff" />
        </g>
      </g>
    </g>
</svg>
